<?xml version="1.0" encoding="UTF-8" standalone="no"?>
<!-- Created with Inkscape (http://www.inkscape.org/) -->

<svg
   width="47.606281mm"
   height="67.594421mm"
   viewBox="0 0 47.606281 67.594421"
   version="1.1"
   id="svg1"
   xml:space="preserve"
   xmlns:inkscape="http://www.inkscape.org/namespaces/inkscape"
   xmlns:sodipodi="http://sodipodi.sourceforge.net/DTD/sodipodi-0.dtd"
   xmlns="http://www.w3.org/2000/svg"
   xmlns:svg="http://www.w3.org/2000/svg"><sodipodi:namedview
     id="namedview1"
     pagecolor="#ffffff"
     bordercolor="#000000"
     borderopacity="0.25"
     inkscape:showpageshadow="2"
     inkscape:pageopacity="0.0"
     inkscape:pagecheckerboard="0"
     inkscape:deskcolor="#d1d1d1"
     inkscape:document-units="mm"
     showguides="true"><inkscape:page
       x="0"
       y="0"
       width="47.606281"
       height="67.594421"
       id="page2"
       margin="0"
       bleed="0" /></sodipodi:namedview><defs
     id="defs1" /><g
     inkscape:label="Слой 1"
     inkscape:groupmode="layer"
     id="layer1"
     transform="translate(82.134389,254.52796)"><path
       style="fill:#ececec"
       d="m -77.49237,-187.13627 c -2.08108,-0.55964 -3.73528,-2.16795 -4.38142,-4.25988 -0.25716,-0.8326 -0.26258,-1.27067 -0.26033,-21.04392 0.002,-22.31966 -0.0459,-21.02577 0.86343,-23.08084 0.2632,-0.59484 1.63459,-3.78245 3.04755,-7.08358 l 2.56901,-6.00206 v -2.66668 c 0,-2.19945 0.0361,-2.7182 0.20594,-2.96071 l 0.20594,-0.29402 h 16.83919 c 16.14551,0 16.8482,0.01 17.05812,0.24193 0.18857,0.20837 0.21894,0.6139 0.21894,2.92324 v 2.68131 l 2.654529,6.49103 c 1.45999,3.57006 2.79777,6.7737 2.97285,7.1192 0.17507,0.3455 0.45307,1.06505 0.61778,1.59902 l 0.29945,0.97084 0.0419,19.97604 c 0.0307,14.63206 10e-4,20.18838 -0.10983,20.76979 -0.41267,2.15844 -1.98556,3.92319 -4.0707,4.56723 -0.826549,0.25529 -1.282239,0.26121 -19.452489,0.25271 -15.82311,-0.007 -18.71288,-0.0374 -19.31988,-0.20065 z m 29.2246,-1.88505 c -0.22404,-0.2788 -0.53939,-0.82946 -0.70076,-1.2237 l -0.29341,-0.71679 -0.0399,-20.10833 c -0.0273,-13.78019 0.005,-20.49983 0.10286,-21.35235 0.18281,-1.59318 0.28046,-1.85515 3.30877,-8.8763 1.39652,-3.23784 2.59181,-6.02092 2.6562,-6.18463 l 0.11707,-0.29766 -6.18136,0.002 -6.18136,0.002 -1.70009,4.06603 c -1.0905,2.60808 -1.81653,4.17277 -2.02483,4.36369 -0.31542,0.28913 -0.40516,0.29766 -3.13219,0.29766 -3.11603,0 -3.39549,-0.0647 -3.39549,-0.78618 0,-0.20587 0.69014,-2.00332 1.53364,-3.99433 0.8435,-1.991 1.56424,-3.69443 1.60165,-3.78538 0.0538,-0.13083 -1.15979,-0.16536 -5.8114,-0.16536 h -5.87942 l -2.80688,6.51536 c -1.54378,3.58345 -2.93765,6.84279 -3.09749,7.24297 l -0.29062,0.72761 v 20.70364 20.70365 l 0.31899,0.64808 c 0.39131,0.79501 0.93845,1.43146 1.65354,1.92346 1.2092,0.83195 0.32805,0.78865 16.19073,0.79558 l 14.4591,0.006 z m -29.63531,-14.70664 c -0.26038,-0.26037 -0.26459,-0.44097 -0.26459,-11.35658 0,-10.57773 0.0112,-11.10214 0.24193,-11.31093 0.22157,-0.20052 1.30707,-0.21894 12.89844,-0.21894 12.48012,0 12.6602,0.004 12.92109,0.26458 0.26034,0.26033 0.26459,0.44097 0.26459,11.2508 v 10.98622 l -0.32472,0.32472 -0.32472,0.32472 h -12.57372 c -12.39733,0 -12.57743,-0.004 -12.8383,-0.26459 z m 24.47396,-11.31093 v -9.98803 h -11.57552 -11.57553 v 9.98803 9.98802 h 11.57553 11.57552 z m 14.740069,26.1276 c 0.35805,-0.1819 0.65116,-0.38964 0.65135,-0.46163 3.8e-4,-0.14538 -3.606119,-2.82446 -3.815899,-2.83464 -0.16905,-0.008 -3.84106,3.05352 -3.87398,3.23012 -0.0632,0.33892 0.88172,0.44981 3.60939,0.42359 2.674939,-0.0257 2.802309,-0.039 3.429139,-0.35744 z m -6.090799,-3.00077 2.05926,-1.69559 0.004,-20.07526 0.004,-20.07525 h 0.79375 0.79375 l 0.007,20.07525 0.008,20.07526 2.180049,1.55431 2.18004,1.5543 0.29291,-0.62826 0.2929,-0.62826 v -20.24063 c 0,-19.26891 -0.0117,-20.27873 -0.24312,-21.03437 -0.13372,-0.43656 -0.38583,-1.07962 -0.56024,-1.42901 -0.17441,-0.34939 -1.33991,-3.14736 -2.589999,-6.21771 -1.25009,-3.07034 -2.30941,-5.62585 -2.35404,-5.6789 -0.0764,-0.0908 -4.65416,10.39853 -5.4115,12.39958 l -0.35048,0.92604 v 20.96823 c 0,19.6615 0.0144,21.00004 0.23079,21.47875 0.152,0.33624 0.29459,0.48604 0.41766,0.43881 0.10278,-0.0394 1.11354,-0.83472 2.24614,-1.76729 z m -13.87853,-52.33377 1.49847,-3.54235 -1.85032,0.0366 -1.85033,0.0366 -1.38027,3.24114 c -0.75915,1.78263 -1.41568,3.37682 -1.45896,3.54264 l -0.0787,0.30148 1.81081,-0.0369 1.81081,-0.0369 z m -3.50199,-6.97483 v -1.85209 h -5.95313 -5.95312 v 1.85209 1.85208 h 5.95312 5.95313 z m 5.42395,0 v -1.85209 h -1.91822 -1.91823 v 1.85209 1.85208 h 1.91823 1.91822 z m 14.02292,0 v -1.85209 h -6.21771 -6.21771 v 1.85209 1.85208 h 6.21771 6.21771 z"
       id="path1"
       sodipodi:nodetypes="sscsscsscssscssscscscsscscccsscccssssssscsscccssccccssscscccsccccccccccsscsssccccccccccccsssssscsscccccccssccccccccccccccccccccccccccccccc" /></g></svg>
