<?xml version="1.0" encoding="UTF-8" standalone="no"?>
<!-- Created with Inkscape (http://www.inkscape.org/) -->

<svg
   width="61.791027mm"
   height="67.675331mm"
   viewBox="0 0 61.791027 67.675331"
   version="1.1"
   id="svg1"
   xml:space="preserve"
   xmlns:inkscape="http://www.inkscape.org/namespaces/inkscape"
   xmlns:sodipodi="http://sodipodi.sourceforge.net/DTD/sodipodi-0.dtd"
   xmlns="http://www.w3.org/2000/svg"
   xmlns:svg="http://www.w3.org/2000/svg"><sodipodi:namedview
     id="namedview1"
     pagecolor="#ffffff"
     bordercolor="#000000"
     borderopacity="0.25"
     inkscape:showpageshadow="2"
     inkscape:pageopacity="0.0"
     inkscape:pagecheckerboard="0"
     inkscape:deskcolor="#d1d1d1"
     inkscape:document-units="mm"
     showguides="true"><inkscape:page
       x="0"
       y="0"
       width="61.791027"
       height="67.675331"
       id="page2"
       margin="0"
       bleed="0" /></sodipodi:namedview><defs
     id="defs1" /><g
     inkscape:label="Слой 1"
     inkscape:groupmode="layer"
     id="layer1"
     transform="translate(-255.26572,254.40093)"><path
       style="fill:#333333;stroke-width:0.132291"
       d="m 273.02823,-186.93157 c -0.18081,-0.18082 -0.20788,-0.79232 -0.20788,-4.69636 0,-3.51631 -0.036,-4.48846 -0.16632,-4.48846 -0.28101,0 -6.97743,-6.78741 -6.97743,-7.07225 0,-0.14154 0.18005,-0.44311 0.40011,-0.67016 0.37968,-0.39172 0.38812,-0.42351 0.16537,-0.6222 -0.12912,-0.11517 -0.711,-0.3922 -1.29309,-0.61563 -6.30227,-2.41905 -10.0322,-6.73809 -9.65746,-11.18277 0.38186,-4.52902 3.8929,-8.32849 10.7158,-11.5961 5.89965,-2.82546 11.07175,-4.22423 15.61954,-4.22423 h 1.40862 l -0.0912,-0.36353 c -0.0502,-0.19994 -0.10129,-0.36797 -0.11356,-0.3734 -0.0122,-0.005 -0.30565,-0.11487 -0.65195,-0.2432 -1.27609,-0.47289 -2.05736,-1.72979 -2.17908,-3.50568 -0.1774,-2.58823 1.16087,-5.38076 2.7016,-5.63733 0.77875,-0.12969 0.79532,-0.14229 0.89545,-0.68114 0.16554,-0.89084 0.80713,-2.36794 1.44585,-3.32872 1.33163,-2.00305 3.35486,-3.26776 5.69859,-3.56214 l 0.78089,-0.0981 0.15665,-0.93006 c 0.26832,-1.59316 1.03756,-2.65008 2.37447,-3.26247 0.97915,-0.44851 2.98779,-0.41501 4.61703,0.077 2.25318,0.68045 4.36001,1.87136 5.15538,2.91414 1.15807,1.51831 1.17546,3.371 0.0472,5.03136 l -0.34625,0.50955 0.64808,0.72713 c 0.77086,0.86488 1.49883,2.19997 1.7884,3.27992 0.2804,1.0457 0.27597,3.08285 -0.009,4.23908 -0.12318,0.49945 -0.42123,1.33921 -0.66232,1.86614 l -0.43835,0.95804 0.37705,0.37704 c 0.863,0.863 0.81384,2.44194 -0.13577,4.36097 -0.80755,1.63193 -2.47802,3.20163 -3.40716,3.20163 -0.54344,0 -0.36359,0.19917 0.80169,0.88775 2.88763,1.70635 5.05824,3.71767 6.72189,6.22859 1.10701,1.67079 3.37165,6.20484 4.40907,8.82744 2.141,5.41242 3.39066,10.27439 3.4336,13.35883 0.0157,1.12809 -0.024,1.40218 -0.26967,1.8611 -1.0886,2.03377 -4.7121,3.29426 -10.3614,3.60437 l -1.65365,0.0908 -0.0661,2.35328 c -0.0533,1.8966 -0.10466,2.37758 -0.26458,2.47845 -0.12179,0.0768 -6.18674,0.12594 -15.70019,0.12718 -13.91785,0.002 -15.52299,-0.0192 -15.70964,-0.20586 z m 30.35149,-2.88634 v -1.7713 l -1.48828,-0.0607 -1.48828,-0.0607 -1.91823,0.94475 c -3.04689,1.50063 -4.32906,1.80906 -5.40396,1.29993 -0.58368,-0.27645 -1.89776,-1.58427 -2.53354,-2.52145 l -0.46302,-0.68253 -1.6175,-0.004 -1.61749,-0.003 -0.54966,-0.69453 c -0.30231,-0.38199 -0.60766,-0.82134 -0.67855,-0.97633 -0.11309,-0.24728 -0.26521,-0.28896 -1.24143,-0.3402 -0.96363,-0.0506 -1.18751,-0.11048 -1.6727,-0.44757 -1.48704,-1.03312 -1.53198,-3.23365 -0.0874,-4.28008 0.30752,-0.22277 0.6395,-0.40504 0.73772,-0.40504 0.13283,0 0.17859,-0.23608 0.17859,-0.92139 0,-0.77555 0.0405,-0.94306 0.25589,-1.05833 0.14685,-0.0786 1.18972,-0.13695 2.44739,-0.13695 2.54582,0 2.39572,0.12397 1.86676,-1.54174 -0.31379,-0.98813 -1.35919,-2.74272 -1.69866,-2.85099 -0.0877,-0.028 -1.01204,-0.0275 -2.05415,0.001 l -1.89476,0.0519 -4.15146,4.51809 -4.15146,4.51807 -0.006,4.59713 -0.006,4.59714 H 288.76177 303.38 Z m -7.93011,-1.02971 c 0.46888,-0.15811 1.65618,-0.69905 2.63845,-1.20208 l 1.78593,-0.91461 3.30729,-0.0395 c 7.38492,-0.0884 11.85997,-1.2346 12.51002,-3.20426 0.2793,-0.8463 -0.0845,-3.59419 -0.87967,-6.64355 -0.25447,-0.97591 -0.48958,-1.81792 -0.52247,-1.87114 -0.0329,-0.0532 -2.33726,0.87296 -5.12082,2.05818 -9.51148,4.0499 -10.74976,4.56415 -10.98999,4.56402 -0.13224,-7e-5 -0.57872,-0.27701 -0.99219,-0.61542 -1.1002,-0.90049 -1.72539,-1.14315 -2.78672,-1.08166 -1.1106,0.0644 -1.90794,0.44493 -2.94638,1.40635 -1.17252,1.08554 -1.61469,1.78131 -1.50469,2.36766 0.271,1.44459 1.80279,3.79111 3.28589,5.03361 0.6177,0.51749 1.02546,0.54372 2.21535,0.14248 z m -6.22516,-3.18518 c -4e-5,-0.0182 -0.12678,-0.36049 -0.28164,-0.76068 -0.15487,-0.40018 -0.28808,-1.06044 -0.29603,-1.46724 -0.0119,-0.60962 0.0533,-0.84216 0.37087,-1.32291 0.55001,-0.83259 1.75008,-2.06318 2.5202,-2.58429 l 0.65969,-0.44639 h -3.68457 -3.68457 l 0.0917,0.76068 c 0.18476,1.53356 1.1231,3.84363 2.17516,5.35499 0.33845,0.48621 0.35614,0.4933 1.23633,0.49609 0.49114,0.002 0.89294,-0.012 0.89291,-0.0302 z m -4.82703,-2.7411 c -0.17024,-0.43439 -0.35002,-0.97419 -0.39952,-1.19956 -0.12489,-0.56862 -0.43519,-0.64804 -0.8135,-0.20823 -0.55044,0.63991 -0.33205,1.77148 0.3988,2.06641 0.15593,0.0629 0.47255,0.11818 0.70362,0.12279 l 0.42012,0.008 z m -7.09026,-5.78811 c 2.40936,-2.63558 4.49491,-4.85312 4.63457,-4.92786 0.13966,-0.0747 0.89781,-0.13855 1.68476,-0.14178 l 1.43084,-0.006 -2.64584,-2.57605 c -1.45521,-1.41682 -3.04121,-2.93263 -3.52445,-3.36846 l -0.87863,-0.79242 -1.41692,1.51924 -1.41692,1.51923 0.38708,0.49912 c 0.83581,1.07773 1.77076,2.53458 1.88724,2.9407 0.15813,0.55138 -0.0261,1.52816 -0.44367,2.35217 -1.21342,2.39457 -4.52647,5.26486 -5.7862,5.01292 -0.51058,-0.10212 -1.84299,-1.03983 -2.95323,-2.0784 -0.45702,-0.42752 -0.87158,-0.73668 -0.92125,-0.68701 -0.0985,0.0985 5.35289,5.61427 5.49493,5.55982 0.0479,-0.0183 2.05833,-2.18975 4.46769,-4.82533 z m 23.43253,2.07091 c 1.19736,-0.51432 2.22846,-0.98547 2.29134,-1.04699 0.0637,-0.0623 -1.36535,-3.39944 -3.22511,-7.53148 l -3.33944,-7.41961 -0.61135,-0.18048 c -0.33624,-0.0993 -3.88556,-1.11953 -7.88739,-2.26725 l -7.27604,-2.08676 -2.07696,1.1427 c -1.14232,0.62849 -2.10849,1.1427 -2.14705,1.1427 -0.0867,0 -0.63929,-1.06886 -0.58079,-1.12345 0.0232,-0.0217 0.96504,-0.54512 2.09282,-1.16312 l 2.05052,-1.12365 0.49142,-4.27474 c 0.27028,-2.3511 0.46186,-4.30429 0.42573,-4.34042 -0.13054,-0.13055 -3.32388,0.26428 -4.78141,0.59118 -4.74137,1.0634 -11.29745,3.93987 -14.63951,6.42305 -0.091,0.0676 5.15416,7.32547 5.8031,8.02997 0.13121,0.14245 0.70987,-0.0997 3.14555,-1.31607 2.71989,-1.35835 3.01508,-1.47681 3.32645,-1.33494 l 0.34169,0.15569 v 2.99464 2.99465 l 1.80571,-1.87421 c 1.43132,-1.48562 1.86891,-1.86593 2.11055,-1.83426 0.17896,0.0234 1.14962,0.84574 2.35056,1.99125 1.74576,1.66519 2.10665,1.95131 2.46125,1.95131 0.75689,0 2.26378,0.2843 3.20666,0.60499 2.68932,0.9147 5.0363,3.04992 6.44426,5.86281 0.76806,1.53446 0.76684,1.5094 0.0855,1.76192 l -0.58526,0.21691 -0.4695,-0.98862 c -1.01924,-2.14625 -2.47082,-3.82228 -4.20112,-4.85072 -0.84502,-0.50226 -2.8729,-1.22389 -3.16535,-1.1264 -0.0866,0.0289 0.65686,0.82366 1.65201,1.76625 2.48729,2.35592 3.4044,3.78694 3.79882,5.92753 l 0.16205,0.87949 h 3.27693 c 3.23631,0 3.27947,0.004 3.48286,0.29402 0.11327,0.16171 0.20594,0.45451 0.20594,0.65067 0,0.26113 0.11749,0.42926 0.43865,0.62775 0.24126,0.14911 0.54814,0.39209 0.68196,0.53996 0.13382,0.14787 0.34088,0.26885 0.46012,0.26885 0.11925,0 1.19646,-0.4208 2.39382,-0.93512 z m -28.51577,-1.72351 c 2.01906,-1.28046 4.30948,-4.41158 3.93727,-5.38246 -0.12417,-0.32388 -1.58275,-2.40472 -1.99893,-2.85171 -0.19235,-0.20658 -0.52248,-0.4658 -0.73363,-0.57603 -0.54268,-0.28331 -1.93373,-0.17965 -2.87755,0.21444 -0.41135,0.17176 -0.84095,0.27659 -0.95466,0.23295 -0.17085,-0.0656 -5.30707,-6.84954 -8.35382,-11.03383 -0.43534,-0.59788 -0.84947,-1.08901 -0.92029,-1.09141 -0.0708,-0.002 -0.47489,0.35938 -0.89792,0.80394 -3.07109,3.2274 -3.68754,6.9257 -1.67376,10.04141 1.38387,2.14113 4.62841,4.43652 8.03454,5.68415 0.84552,0.30971 1.1464,0.52131 2.37022,1.66695 1.57479,1.4742 3.06457,2.70128 3.27957,2.70128 0.0786,0 0.43366,-0.18436 0.78896,-0.40968 z m 36.97664,-1.9144 c 2.51023,-1.0746 4.58753,-1.97222 4.61621,-1.99471 0.0781,-0.0613 -0.85462,-2.6517 -1.68409,-4.67705 -0.9608,-2.346 -3.06815,-6.50693 -4.05354,-8.00364 -1.35512,-2.0583 -4.30191,-4.74011 -6.37134,-5.79845 l -0.41515,-0.21231 -1.80794,3.85029 c -1.05196,2.2403 -1.77599,3.93954 -1.73152,4.06372 0.42335,1.18209 6.65175,14.81502 6.75101,14.77684 0.0728,-0.028 2.18612,-0.9301 4.69636,-2.00469 z m -37.07474,-8.38723 0.69453,-0.004 v -2.11741 -2.1174 l -2.2582,1.13058 c -1.24201,0.62181 -2.23915,1.18361 -2.21588,1.24843 0.0232,0.0648 0.40963,0.62041 0.85858,1.23465 l 0.81627,1.1168 0.70508,-0.24351 c 0.3878,-0.13393 1.01762,-0.24545 1.39962,-0.24782 z m 26.27281,-9.207 c 0.92059,-1.96916 1.6738,-3.62019 1.6738,-3.66897 0,-0.0488 -0.33873,-0.25997 -0.75273,-0.46931 l -0.75273,-0.38063 -0.97194,0.77237 c -2.18193,1.7339 -3.93874,2.49639 -5.98936,2.59948 -2.30166,0.11572 -4.06398,-0.5672 -5.69427,-2.20658 -1.31284,-1.32016 -2.19284,-3.06144 -2.69675,-5.33613 -0.0651,-0.29363 -0.15381,-0.3638 -0.46023,-0.3638 -0.3251,0 -0.39013,0.0618 -0.45276,0.42995 -0.19425,1.14203 -0.91406,8.04911 -0.84593,8.11724 0.0428,0.0428 3.43053,1.04455 7.52826,2.22609 5.37476,1.54976 7.49087,2.10818 7.59563,2.00441 0.0799,-0.0791 0.89842,-1.75496 1.81901,-3.72412 z m -5.56298,-2.63598 c 2.33972,-0.60942 4.8725,-2.55455 6.46664,-4.96627 0.63417,-0.9594 1.4316,-2.38186 1.4316,-2.55368 0,-0.029 -0.34737,-0.17947 -0.77192,-0.33427 -2.37731,-0.86681 -4.61219,-3.35824 -5.37247,-5.98917 l -0.21531,-0.74507 -1.03177,0.62011 c -2.40206,1.44368 -5.31982,1.79878 -7.61429,0.92669 -0.36894,-0.14023 -0.71068,-0.25499 -0.75942,-0.25503 -0.14705,-1.1e-4 -0.48375,1.69582 -0.63622,3.20455 -0.40959,4.05321 1.22799,8.09589 3.84432,9.49038 0.45426,0.24212 1.09908,0.51556 1.43291,0.60765 0.84066,0.23191 2.32336,0.2292 3.22593,-0.006 z m -2.81739,-2.03585 c -0.73841,-0.24224 -1.43055,-0.68739 -1.95724,-1.25878 -0.30597,-0.33193 -0.5563,-0.66316 -0.5563,-0.73606 0,-0.0729 0.23749,-0.25372 0.52774,-0.4018 l 0.52774,-0.26923 0.47286,0.5234 c 0.65093,0.72051 1.40618,0.98849 2.55432,0.90634 l 0.90852,-0.065 0.13942,0.60924 c 0.0767,0.33508 0.11293,0.63572 0.0806,0.66808 -0.11197,0.11197 -2.3682,0.13188 -2.69763,0.0238 z m 5.17613,-3.83689 c -0.42374,-0.14942 -0.92114,-0.46094 -1.23146,-0.77126 l -0.5206,-0.5206 0.5342,-0.3702 0.53419,-0.3702 0.45028,0.39535 c 0.59099,0.5189 1.20732,0.62764 2.01095,0.3548 0.62519,-0.21226 0.63519,-0.21116 0.87801,0.0959 0.5456,0.68998 0.54119,0.72459 -0.12901,1.01145 -0.96839,0.4145 -1.70262,0.46528 -2.52656,0.17475 z m -7.13642,-2.59794 c -0.7638,-0.33176 -1.21132,-0.72856 -1.6145,-1.43154 -0.21531,-0.3754 -0.39203,-0.74694 -0.39272,-0.82563 -5e-4,-0.0787 0.26934,-0.205 0.60005,-0.28067 l 0.60129,-0.1376 0.26394,0.51737 c 0.35515,0.69615 0.94101,1.03505 1.79039,1.03567 l 0.67723,5e-4 0.082,0.49609 c 0.0451,0.27286 0.0827,0.57051 0.0835,0.66146 0.002,0.23374 -1.53111,0.2076 -2.09113,-0.0357 z m 13.69034,4.83963 c 1.34918,-0.61258 2.82204,-2.97702 2.82204,-4.53034 0,-0.47747 -0.42422,-0.90203 -0.90129,-0.90203 -0.53598,0 -0.95996,0.51237 -1.75152,2.11666 -0.37695,0.76399 -0.94631,1.79276 -1.26524,2.28616 -0.31893,0.4934 -0.57987,0.9504 -0.57987,1.01556 0,0.31631 0.9918,0.32459 1.67588,0.014 z m 0.2092,-5.8795 c 0.43248,-0.43248 0.8784,-0.74831 1.13659,-0.80502 0.47544,-0.10443 0.84229,-0.69826 1.33514,-2.16128 1.38187,-4.10199 -0.30139,-7.48903 -4.84048,-9.73996 -2.54121,-1.26019 -5.21938,-1.97344 -7.38768,-1.9675 -2.2925,0.006 -3.77591,0.5695 -5.16893,1.96252 -0.93978,0.93978 -1.89384,2.71729 -2.18587,4.07249 -0.15,0.69608 -0.14199,0.81017 0.0836,1.19062 0.15728,0.26527 0.27582,0.78747 0.32076,1.41297 l 0.0713,0.99218 0.9214,0.30774 c 1.25428,0.41892 2.42024,0.49396 3.64266,0.23444 1.21549,-0.25804 2.82962,-1.02077 3.94398,-1.86364 0.73585,-0.55658 0.87266,-0.61457 1.15087,-0.48781 0.21705,0.0989 0.35928,0.32145 0.45503,0.71199 0.68937,2.81192 1.65194,4.46155 3.28211,5.62481 0.71161,0.5078 2.11554,1.21287 2.43725,1.22402 0.0498,0.001 0.41086,-0.31713 0.8023,-0.70857 z m -18.89314,-1.27778 c 0.0505,-0.51213 0.27158,-1.65811 0.49138,-2.54661 0.48453,-1.95871 0.5078,-2.70754 0.0946,-3.04419 -0.45188,-0.36814 -0.90482,-0.23527 -1.3952,0.40931 -0.53495,0.70315 -0.8318,1.64453 -0.92633,2.93765 -0.0953,1.30426 0.1091,2.03412 0.74909,2.67411 0.73677,0.73677 0.87751,0.67538 0.98646,-0.43027 z m 19.90004,-12.01887 c 0.79584,-1.49314 0.45698,-2.82241 -0.988,-3.87578 -2.09964,-1.5306 -5.72337,-2.48802 -7.23372,-1.91122 -1.03863,0.39666 -1.81401,1.53424 -1.81401,2.66138 0,0.42525 0.005,0.42798 0.79562,0.5107 1.18454,0.12381 3.28053,0.68796 4.80231,1.29259 1.2982,0.5158 3.576,1.72227 3.73387,1.9777 0.1515,0.24514 0.29534,0.11122 0.70393,-0.65537 z"
       id="path1-1" /></g></svg>
