<?xml version="1.0" encoding="UTF-8" standalone="no"?>
<!-- Created with Inkscape (http://www.inkscape.org/) -->

<svg
   width="67.715355mm"
   height="45.480236mm"
   viewBox="0 0 67.715355 45.480236"
   version="1.1"
   id="svg1"
   xml:space="preserve"
   xmlns:inkscape="http://www.inkscape.org/namespaces/inkscape"
   xmlns:sodipodi="http://sodipodi.sourceforge.net/DTD/sodipodi-0.dtd"
   xmlns="http://www.w3.org/2000/svg"
   xmlns:svg="http://www.w3.org/2000/svg"><sodipodi:namedview
     id="namedview1"
     pagecolor="#ffffff"
     bordercolor="#000000"
     borderopacity="0.25"
     inkscape:showpageshadow="2"
     inkscape:pageopacity="0.0"
     inkscape:pagecheckerboard="0"
     inkscape:deskcolor="#d1d1d1"
     inkscape:document-units="mm"
     showguides="true"><inkscape:page
       x="0"
       y="0"
       width="67.715355"
       height="45.480236"
       id="page2"
       margin="0"
       bleed="0" /></sodipodi:namedview><defs
     id="defs1" /><g
     inkscape:label="Слой 1"
     inkscape:groupmode="layer"
     id="layer1"
     transform="translate(-245.72918,583.38089)"><g
       id="g4"><path
         id="path1-18"
         d="m 281.96024,-569.52896 c 0.12348,-0.0182 0.24951,-0.0276 0.378,-0.0276 0.20885,0 0.41108,0.0252 0.60628,0.0731 0.15703,0.0386 0.26894,0.20458 0.26818,0.39182 v 0.002 c -10e-4,0.19364 -0.0144,0.38705 -0.0335,0.57918 -0.0458,0.4595 -0.1247,0.9128 -0.21564,1.3612 -0.19563,0.96393 -0.44547,1.90969 -0.69464,2.85328 l -0.0515,0.19485 c -0.0136,0.0515 -0.0231,0.11174 -0.0455,0.1586 -0.0288,0.0604 -0.0815,0.0705 -0.1292,0.041 -0.1126,-0.0697 -0.17874,-0.25772 -0.21125,-0.40024 -0.0259,-0.11399 -0.0303,-0.23313 -0.036,-0.35089 -0.006,-0.13055 -0.0101,-0.26143 -0.0112,-0.39213 -0.002,-0.26085 0.006,-0.52188 0.0244,-0.78154 0.015,-0.21188 0.0339,-0.42524 0.0684,-0.63369 0.0139,-0.0843 0.0288,-0.16841 0.0436,-0.25241 0.008,-0.0447 0.0159,-0.0893 0.024,-0.13401 0.005,-0.0279 0.0223,-0.0748 0.005,-0.0994 -0.0124,-0.017 -0.0381,-0.0225 -0.0545,-0.0304 -0.0197,-0.009 -0.0394,-0.0221 -0.0563,0.002 -0.0117,0.0168 -0.0161,0.0464 -0.0223,0.0672 -0.009,0.03 -0.0177,0.06 -0.026,0.0902 -0.0639,0.23032 -0.11618,0.46561 -0.15993,0.70308 -0.18452,1.00194 -0.21889,2.05678 -0.0927,3.07353 0.0159,0.12822 0.0341,0.25587 0.0547,0.38311 0.0172,0.1066 0.16076,0.8186 -0.0442,0.87261 -0.0541,0.0143 -0.0823,-0.0357 -0.10493,-0.0882 -0.02,-0.0464 -0.0404,-0.0926 -0.0601,-0.13915 -0.0856,-0.2025 -0.16178,-0.41166 -0.23096,-0.6238 -0.073,-0.22349 -0.13739,-0.45163 -0.1919,-0.6833 -0.0267,-0.11358 -0.0513,-0.2279 -0.0732,-0.343 -0.012,-0.0629 -0.0267,-0.21529 -0.0374,-0.27848 -0.007,-0.0426 -0.006,-0.0897 -0.0487,-0.0889 -0.0363,5e-4 -0.1043,-0.003 -0.1097,0.054 -0.006,0.0597 0.009,0.21994 0.0125,0.27983 0.003,0.0625 0.008,0.125 0.0127,0.18722 0.0193,0.2389 0.0481,0.47638 0.0857,0.71183 0.062,0.38835 0.14993,0.76697 0.25611,1.13974 0.0237,0.0829 0.0502,0.1647 0.0763,0.24654 0.0661,0.20651 0.24895,0.74551 0.18976,0.95162 -0.011,0.0385 -0.0475,0.0588 -0.0801,0.0571 -0.0408,-0.003 -0.0636,-0.0411 -0.0876,-0.0774 -0.12512,-0.18923 -0.24219,-0.38836 -0.34921,-0.59447 -0.20533,-0.39526 -0.36676,-0.82502 -0.47315,-1.27823 -0.0529,-0.22525 -0.0925,-0.45532 -0.12107,-0.6874 -0.0143,-0.1168 -0.0261,-0.23401 -0.0356,-0.35153 -0.003,-0.0367 -0.006,-0.0733 -0.008,-0.10998 -0.002,-0.025 10e-4,-0.057 -0.005,-0.0806 -0.009,-0.0329 -0.0281,-0.0319 -0.0512,-0.0319 -0.0184,0 -0.0436,-0.006 -0.0613,0.002 -0.0353,0.0156 -0.0231,0.10002 -0.0238,0.13594 -0.002,0.12685 -0.003,0.25371 -7e-5,0.38056 0.005,0.23827 0.0211,0.47637 0.0498,0.71207 0.0597,0.48651 0.17591,0.96015 0.34161,1.40582 0.15994,0.43008 0.36183,0.83249 0.57749,1.22133 0.0465,0.0837 0.23235,0.44791 0.0923,0.52644 -0.0385,0.0216 -0.0685,-0.009 -0.0964,-0.041 -0.0356,-0.0412 -0.0706,-0.0831 -0.10514,-0.12573 -0.0689,-0.085 -0.1356,-0.17267 -0.20002,-0.26286 -0.2555,-0.35813 -0.47813,-0.7558 -0.65541,-1.1825 -0.18018,-0.43393 -0.316,-0.8997 -0.39869,-1.37832 -0.0405,-0.23546 -0.068,-0.47501 -0.0853,-0.71498 -0.003,-0.0422 10e-4,-0.0866 -0.0397,-0.0911 -0.0197,-0.003 -0.0439,-0.002 -0.0633,10e-4 -0.0424,0.007 -0.0343,0.0547 -0.0346,0.0982 -5e-4,0.0619 -1.4e-4,0.1238 5e-4,0.18562 0.0161,0.99335 0.23799,1.96547 0.63156,2.82562 0.0955,0.20877 0.20038,0.41078 0.31378,0.60483 0.0312,0.0533 0.0629,0.10603 0.0955,0.15803 0.0248,0.0397 0.0507,0.0784 0.0677,0.12453 0.0184,0.0498 0.0348,0.13787 -0.0229,0.15812 -0.0593,0.0209 -0.12472,-0.0655 -0.16675,-0.10676 -0.0507,-0.0497 -0.10019,-0.10136 -0.14828,-0.15498 -0.0999,-0.11108 -0.19404,-0.23031 -0.2821,-0.35619 -0.37469,-0.53603 -0.66807,-1.17374 -0.8061,-1.86186 -0.76289,-3.80296 0.42742,-7.64853 2.86708,-8.1803 m 1.32288,4.0971 c 0.0199,0.0464 0.0403,0.0925 0.06,0.13907 0.0856,0.20258 0.16177,0.41166 0.23095,0.62389 0.073,0.22348 0.1374,0.45161 0.1919,0.6833 0.0267,0.11358 0.0513,0.22789 0.0732,0.343 0.012,0.0629 0.0267,0.21529 0.0374,0.27846 0.007,0.0426 0.006,0.0897 0.0487,0.0889 0.0364,-10e-4 0.10432,0.002 0.10977,-0.0541 0.006,-0.0596 -0.009,-0.21986 -0.0126,-0.27984 -0.003,-0.0624 -0.008,-0.12491 -0.0127,-0.1872 -0.0193,-0.23885 -0.0481,-0.47639 -0.0856,-0.71176 -0.062,-0.38835 -0.14995,-0.76706 -0.25612,-1.13974 -0.0237,-0.083 -0.0502,-0.16472 -0.0763,-0.24655 -0.0661,-0.2065 -0.24896,-0.7455 -0.18977,-0.9517 0.0111,-0.0385 0.0476,-0.0587 0.0801,-0.057 0.0408,0.002 0.0636,0.041 0.0876,0.0774 0.12513,0.18924 0.24219,0.38835 0.34921,0.59448 0.20533,0.39526 0.36677,0.82501 0.47315,1.27823 0.0529,0.22525 0.0925,0.45532 0.12106,0.6874 0.0143,0.11671 0.0261,0.234 0.0356,0.35153 0.003,0.0366 0.006,0.0733 0.008,0.10996 0.002,0.0251 -10e-4,0.057 0.005,0.0806 0.009,0.0331 0.0281,0.0319 0.0512,0.0319 0.0184,0 0.0436,0.006 0.0614,-0.002 0.0353,-0.0155 0.0231,-0.10009 0.0238,-0.13595 0.002,-0.12684 0.003,-0.25378 7e-5,-0.38055 -0.005,-0.23834 -0.0209,-0.47645 -0.0498,-0.71207 -0.0597,-0.48651 -0.17584,-0.96023 -0.34162,-1.4059 -0.15992,-0.43007 -0.36181,-0.83241 -0.57748,-1.22125 -0.0465,-0.0837 -0.23235,-0.44791 -0.0923,-0.52644 0.0385,-0.0215 0.0686,0.009 0.0965,0.0411 0.0355,0.0412 0.0706,0.0832 0.10508,0.12564 0.0689,0.0851 0.1356,0.17267 0.20004,0.26295 0.25548,0.35821 0.47811,0.75573 0.65539,1.18243 0.18018,0.434 0.316,0.89968 0.39868,1.37839 0.0406,0.23546 0.068,0.47501 0.0853,0.71496 0.003,0.0424 -10e-4,0.0866 0.0397,0.0912 0.0196,0.003 0.0439,0.002 0.0634,-0.001 0.0424,-0.007 0.0343,-0.0548 0.0346,-0.0982 5e-4,-0.062 1.4e-4,-0.1238 -5e-4,-0.1857 -0.0161,-0.99334 -0.23793,-1.96539 -0.63157,-2.82554 -0.0955,-0.20884 -0.20037,-0.41078 -0.31378,-0.60484 -0.0311,-0.0534 -0.0629,-0.10602 -0.0955,-0.15804 -0.0248,-0.0397 -0.0507,-0.0784 -0.0677,-0.12452 -0.0184,-0.0499 -0.0348,-0.13777 0.023,-0.15812 0.0593,-0.0209 0.12472,0.0655 0.16675,0.10675 0.0507,0.0497 0.10019,0.10129 0.14836,0.15491 0.0998,0.11119 0.19397,0.2304 0.28202,0.35637 0.37469,0.53594 0.66809,1.17364 0.8061,1.86168 0.76291,3.80305 -0.4274,7.64854 -2.86708,8.18039 -0.12347,0.0183 -0.24949,0.0277 -0.37794,0.0277 -0.20892,0 -0.41115,-0.0252 -0.60633,-0.0731 -0.15704,-0.0387 -0.26894,-0.2046 -0.26819,-0.39182 v -0.003 c 10e-4,-0.19365 0.0143,-0.38715 0.0335,-0.57926 0.0458,-0.45942 0.12471,-0.9128 0.21566,-1.36114 0.19562,-0.96392 0.44546,-1.90967 0.69462,-2.85326 0.0172,-0.065 0.0343,-0.12999 0.0515,-0.19485 0.0136,-0.0515 0.0231,-0.11175 0.0455,-0.15861 0.0288,-0.0605 0.0815,-0.0705 0.12919,-0.0411 0.11267,0.0698 0.17875,0.25772 0.21127,0.40033 0.0259,0.11399 0.0302,0.23313 0.036,0.3509 0.006,0.13054 0.0102,0.26133 0.0112,0.39213 0.002,0.26086 -0.006,0.52187 -0.0243,0.7816 -0.0152,0.21182 -0.034,0.42518 -0.0684,0.63353 -0.014,0.0843 -0.0287,0.1685 -0.0437,0.25251 -0.008,0.0447 -0.0159,0.0893 -0.024,0.13392 -0.005,0.028 -0.0222,0.0748 -0.005,0.0994 0.0124,0.017 0.0381,0.0226 0.0545,0.0304 0.0197,0.009 0.0394,0.0221 0.0563,-0.002 0.0117,-0.0167 0.0161,-0.0464 0.0223,-0.0671 0.009,-0.03 0.0177,-0.0601 0.026,-0.0903 0.0639,-0.23023 0.11616,-0.46552 0.15992,-0.70306 0.18453,-1.00195 0.21891,-2.0568 0.0927,-3.07353 -0.016,-0.12815 -0.0342,-0.25588 -0.0547,-0.38306 -0.0173,-0.10658 -0.16074,-0.81858 0.0442,-0.87268 0.0541,-0.0143 0.0823,0.0359 0.105,0.0883 m -4.48775,4.96906 c 0.23558,0.73612 0.55626,1.37085 0.94721,1.88066 0.14657,0.19118 0.30311,0.36473 0.46876,0.51946 0.11044,0.10322 0.2249,0.198 0.3432,0.28409 0.53235,0.3874 1.14208,0.59793 1.80838,0.59793 0.66629,0 1.27602,-0.21053 1.80837,-0.59793 0.1183,-0.0861 0.23276,-0.18087 0.34322,-0.28409 0.16563,-0.15473 0.32211,-0.32828 0.46874,-0.51946 0.39095,-0.50981 0.71163,-1.14454 0.94722,-1.88066 0.0294,-0.092 0.0575,-0.1856 0.0843,-0.28071 0.0803,-0.28536 0.14834,-0.58465 0.2034,-0.89648 0.1101,-0.62365 0.16826,-1.29769 0.16826,-2.01202 0,-0.11912 -0.002,-0.23705 -0.005,-0.35378 -0.01,-0.35041 -0.0335,-0.69021 -0.0708,-1.01826 -0.0125,-0.10933 -0.0265,-0.21737 -0.0419,-0.32404 -0.0309,-0.21344 -0.0677,-0.4214 -0.11012,-0.62358 -0.0213,-0.10112 -0.0438,-0.20072 -0.0679,-0.29895 -0.16811,-0.68699 -0.40411,-1.30108 -0.69826,-1.82625 -0.0421,-0.075 -0.0852,-0.14824 -0.12961,-0.21954 -0.0888,-0.14268 -0.18205,-0.27798 -0.27982,-0.40539 -0.0489,-0.0638 -0.0989,-0.12548 -0.14987,-0.1852 -0.1021,-0.11955 -0.20842,-0.23112 -0.31887,-0.33426 -0.0552,-0.0516 -0.11143,-0.10113 -0.16861,-0.14848 -0.57211,-0.47356 -1.24268,-0.73345 -1.98298,-0.73345 -0.7403,0 -1.41087,0.25989 -1.98298,0.73345 -0.0572,0.0474 -0.11341,0.0969 -0.1686,0.14848 -0.11046,0.10314 -0.21677,0.21471 -0.31888,0.33426 -0.0511,0.0597 -0.10103,0.12145 -0.14987,0.1852 -0.0978,0.12741 -0.19107,0.26271 -0.27982,0.40539 -0.0444,0.0713 -0.0876,0.14454 -0.12961,0.21954 -0.29407,0.52517 -0.53015,1.13926 -0.69826,1.82625 -0.0241,0.0982 -0.0466,0.19783 -0.0679,0.29895 -0.0425,0.20218 -0.0792,0.41014 -0.11009,0.62358 -0.0154,0.10667 -0.0294,0.21471 -0.0419,0.32404 -0.0374,0.32805 -0.0613,0.66785 -0.0708,1.01826 -0.003,0.11673 -0.005,0.23466 -0.005,0.35378 0,0.71433 0.0581,1.38837 0.16826,2.01202 0.0551,0.31183 0.12313,0.61112 0.20341,0.89648 0.0267,0.0951 0.0549,0.18867 0.0843,0.28071"
         style="fill:#ececec;fill-opacity:1;fill-rule:nonzero;stroke:none;stroke-width:0.0136087" /><path
         style="fill:#ececec;stroke-width:0.132291"
         d="m 272.91569,-538.07373 c -2.29373,-0.58165 -4.21045,-2.29149 -5.00261,-4.46264 l -0.27754,-0.76068 -2.99191,-5e-4 c -2.73406,-4e-4 -3.02841,-0.0227 -3.41543,-0.25873 -0.80914,-0.49336 -1.04838,-1.43682 -0.56527,-2.22921 0.45256,-0.74225 0.83309,-0.81882 4.06924,-0.81882 h 2.89051 l 0.22317,-0.70799 c 0.86277,-2.73704 3.66007,-4.74259 6.63816,-4.75932 2.81308,-0.0158 5.16322,1.40826 6.3991,3.87748 0.30042,0.60021 0.54622,1.20347 0.54622,1.34056 0,0.24023 0.20281,0.24927 5.595,0.24927 h 5.595 l 0.25645,-0.75447 c 1.09964,-3.2351 4.68484,-5.31071 7.9777,-4.61859 2.56268,0.53864 4.49584,2.1466 5.36637,4.46363 l 0.31683,0.84328 1.79997,0.0368 1.79997,0.0368 -0.0105,-6.71753 -0.0105,-6.71754 -1.96212,-1.75286 -1.96211,-1.75287 h -6.92905 c -6.92274,0 -6.92958,-2.6e-4 -7.51877,-0.29765 -0.38857,-0.19613 -0.6907,-0.47816 -0.88575,-0.82683 l -0.29602,-0.52916 -0.002,-7.44141 -0.002,-7.4414 h -14.35788 c -15.8089,0 -15.01177,0.042 -15.53663,-0.81887 -0.48311,-0.79238 -0.24387,-1.73584 0.56527,-2.2292 0.41355,-0.25215 0.78118,-0.25825 15.60824,-0.25873 12.52634,-4.1e-4 15.26033,0.0311 15.61659,0.17995 0.8964,0.37454 1.40953,1.35083 1.41098,2.68452 l 10e-4,0.68215 3.07578,0.0561 c 2.7448,0.0501 3.16005,0.0871 3.85885,0.34368 1.54183,0.56622 2.91225,1.73775 3.57783,3.05858 0.16665,0.3307 1.05825,2.6551 1.98134,5.16534 0.92308,2.51023 1.7599,4.68991 1.85958,4.84374 0.0997,0.15382 1.22274,1.24585 2.49568,2.42673 1.68486,1.56302 2.37097,2.28836 2.52227,2.66649 0.18075,0.45173 0.20784,1.54232 0.20784,8.3673 v 7.84787 l -0.30464,0.57607 c -0.20821,0.39375 -0.48696,0.67249 -0.8807,0.88071 -0.5449,0.28811 -0.71712,0.30463 -3.17699,0.30463 h -2.60087 l -0.2264,0.71822 c -0.12452,0.39503 -0.46657,1.07788 -0.7601,1.51746 -2.49365,3.73426 -7.79494,4.25015 -10.92147,1.06281 -0.88822,-0.90549 -1.26574,-1.48481 -1.6538,-2.53781 l -0.28033,-0.76068 h -5.58373 -5.58373 l -0.16575,0.56224 c -0.56704,1.92355 -2.28055,3.67522 -4.32388,4.42019 -1.15514,0.42115 -2.93843,0.5268 -4.06589,0.24089 z m 3.30352,-3.47629 c 1.31489,-0.67407 2.03424,-1.74934 2.13347,-3.18907 0.0871,-1.26427 -0.28261,-2.17355 -1.23943,-3.04803 -1.53991,-1.40739 -3.73944,-1.37222 -5.23382,0.0837 -1.07368,1.04604 -1.42562,2.95746 -0.78854,4.28257 0.38951,0.81017 1.28108,1.65994 2.07876,1.9813 0.85371,0.34394 2.26273,0.2929 3.04956,-0.11046 z m 25.00313,0 c 0.82309,-0.42196 1.27936,-0.8586 1.71047,-1.63687 0.34744,-0.62722 0.39061,-0.83021 0.3892,-1.82995 -0.002,-1.28392 -0.22222,-1.83859 -1.06365,-2.67672 -0.77888,-0.77585 -1.54976,-1.09376 -2.63893,-1.08832 -1.6226,0.008 -2.87502,0.81709 -3.55085,2.29364 -0.41468,0.90599 -0.38017,2.2444 0.081,3.14136 0.41452,0.80624 1.35694,1.67507 2.12368,1.95786 0.76887,0.28358 2.23833,0.20336 2.94908,-0.161 z m 3.22574,-25.34294 c 0,-0.1453 -2.81876,-7.62132 -3.02203,-8.01515 -0.29648,-0.57441 -1.17878,-1.27134 -1.84303,-1.45582 -0.27102,-0.0753 -1.6685,-0.13719 -3.10552,-0.13759 l -2.61276,-10e-4 v 4.82864 4.82865 h 5.29167 c 2.91042,0 5.29167,-0.0216 5.29167,-0.048 z m -53.47725,14.1284 c -0.79768,-0.43282 -1.02123,-1.71389 -0.4231,-2.42472 0.18657,-0.22174 0.55864,-0.4641 0.82682,-0.53858 0.723,-0.20081 11.86135,-0.16868 12.4554,0.036 0.54404,0.18738 1.06292,0.89391 1.06292,1.44731 0,0.56277 -0.34192,1.20076 -0.78323,1.46145 -0.34585,0.2043 -0.96957,0.22519 -6.57937,0.2204 -5.22357,-0.005 -6.2542,-0.0362 -6.55944,-0.20179 z m -4.42701,-9.18026 c -0.80294,-0.48959 -1.04843,-1.43676 -0.57402,-2.21482 0.53924,-0.88438 -0.35414,-0.83324 14.55744,-0.83324 14.91159,0 14.0182,-0.0511 14.55744,0.83324 0.32834,0.53849 0.32834,1.10231 0,1.6408 -0.5393,0.88448 0.35709,0.8333 -14.58394,0.83275 -13.18926,-5e-4 -13.54416,-0.007 -13.95692,-0.25873 z m 7.90259,-9.04173 c -0.86828,-0.29906 -1.33072,-1.51048 -0.88394,-2.31561 0.0933,-0.16809 0.34417,-0.42071 0.55755,-0.56136 0.37474,-0.24704 0.7247,-0.25578 10.2787,-0.25662 l 9.89074,-10e-4 0.47412,0.43449 c 0.91654,0.83996 0.65407,2.30848 -0.48258,2.69997 -0.65615,0.22599 -19.17845,0.22599 -19.83459,0 z"
         id="path1-9" /></g></g></svg>
