<?xml version="1.0" encoding="UTF-8" standalone="no"?>
<!-- Created with Inkscape (http://www.inkscape.org/) -->

<svg
   width="67.678825mm"
   height="67.632759mm"
   viewBox="0 0 67.678825 67.632759"
   version="1.1"
   id="svg1"
   xml:space="preserve"
   xmlns:inkscape="http://www.inkscape.org/namespaces/inkscape"
   xmlns:sodipodi="http://sodipodi.sourceforge.net/DTD/sodipodi-0.dtd"
   xmlns="http://www.w3.org/2000/svg"
   xmlns:svg="http://www.w3.org/2000/svg"><sodipodi:namedview
     id="namedview1"
     pagecolor="#ffffff"
     bordercolor="#000000"
     borderopacity="0.25"
     inkscape:showpageshadow="2"
     inkscape:pageopacity="0.0"
     inkscape:pagecheckerboard="0"
     inkscape:deskcolor="#d1d1d1"
     inkscape:document-units="mm"
     showguides="true"><inkscape:page
       x="0"
       y="0"
       width="67.678825"
       height="67.632759"
       id="page2"
       margin="0"
       bleed="0" /></sodipodi:namedview><defs
     id="defs1" /><g
     inkscape:label="Слой 1"
     inkscape:groupmode="layer"
     id="layer1"
     transform="translate(89.467325,609.81786)"><path
       style="fill:#1a1a1a;stroke-width:0.132291"
       d="m -64.572953,-542.34069 c -0.805,-0.25394 -1.55534,-0.90571 -1.946623,-1.69091 l -0.341125,-0.68455 v -9.02643 c 0,-9.56299 -0.04246,-10.38808 -0.617922,-12.008 -0.71511,-2.01303 -1.504887,-3.0244 -4.068491,-5.21 -4.253389,-3.62624 -5.500047,-6.24502 -5.500047,-11.55365 0,-1.22889 -0.0337,-2.23435 -0.075,-2.23435 -0.0412,0 -0.26448,0.14227 -0.4961,0.31615 -0.65241,0.48978 -1.94311,1.09639 -2.87909,1.35313 -1.3132,0.36022 -3.47528,0.30874 -4.77397,-0.11366 -1.30963,-0.42597 -2.6542,-1.18219 -3.36406,-1.89205 -1.0513,-1.0513 -1.11307,-2.57467 -0.14638,-3.61001 0.6179,-0.66178 0.95237,-0.74585 3.24658,-0.81606 l 2.16148,-0.0661 0.31899,-0.37118 c 0.29671,-0.34527 0.31898,-0.47635 0.31898,-1.87778 0,-1.40177 -0.0222,-1.53242 -0.31918,-1.87767 l -0.31917,-0.37106 -2.23808,-0.0663 c -2.21445,-0.0656 -2.24331,-0.0703 -2.73479,-0.44539 -0.93399,-0.71286 -1.30105,-1.75648 -1.00479,-2.85672 0.21612,-0.80262 1.19596,-1.71686 2.5526,-2.38172 1.50832,-0.7392 2.53825,-0.98258 4.12956,-0.97584 2.10355,0.009 3.86267,0.61195 5.50274,1.88643 l 0.82298,0.63953 0.517713,-0.77528 c 0.284743,-0.4264 0.75429,-0.97778 1.043438,-1.22528 1.052299,-0.90073 2.917967,-1.67105 4.047169,-1.67105 h 0.435226 l 0.0032,-1.02526 c 0.0058,-1.84333 0.493254,-3.11913 1.627238,-4.25908 0.962616,-0.96767 1.849965,-1.36593 3.201437,-1.43687 1.279512,-0.0672 2.09318,0.15293 3.119942,0.84389 l 0.665916,0.44812 0.730281,-0.78879 c 0.490249,-0.52953 1.018886,-0.93087 1.608379,-1.22108 0.795408,-0.39157 0.990763,-0.43229 2.074295,-0.43229 1.083532,0 1.278888,0.0407 2.074295,0.43229 0.582762,0.2869 1.117738,0.69113 1.590572,1.20184 l 0.712467,0.76955 0.655605,-0.44526 c 1.403786,-0.9534 3.465851,-1.11075 4.994432,-0.38112 0.873705,0.41704 1.886415,1.36686 2.275755,2.13442 0.14552,0.28689 0.27532,0.54227 0.288435,0.56752 0.01315,0.0252 0.428435,-0.15335 0.92292,-0.39688 0.83846,-0.41293 0.988455,-0.44277 2.225105,-0.44277 1.18135,0 1.41586,0.0415 2.14921,0.38022 1.00859,0.46588 2.025404,1.49823 2.524354,2.56292 0.348705,0.74408 0.358115,0.8315 0.42279,3.92753 l 0.06614,3.1665 0.661455,-0.90237 c 1.13892,-1.55371 3.00189,-2.80157 4.96094,-3.32294 1.15077,-0.30626 3.232141,-0.31235 4.365626,-0.0128 1.871665,0.49468 3.838695,1.71524 4.28711,2.6602 0.48381,1.01955 0.38359,2.07192 -0.271455,2.85039 -0.64404,0.7654 -0.965545,0.85486 -3.332655,0.92731 l -2.161276,0.0661 -0.319195,0.37118 c -0.29699,0.34535 -0.319195,0.47601 -0.319195,1.87778 0,1.40143 0.02225,1.53251 0.31898,1.87778 l 0.318985,0.37118 2.161486,0.0661 c 1.700235,0.052 2.24987,0.11454 2.575675,0.29291 1.278515,0.69995 1.723185,2.3989 0.953735,3.6439 -0.317725,0.51409 -1.34315,1.31328 -2.297305,1.79046 -1.267445,0.63386 -2.53444,0.93506 -3.965411,0.94268 -1.626,0.009 -2.427155,-0.17754 -3.99831,-0.92926 -1.324275,-0.63359 -2.5481,-1.6557 -3.442675,-2.87523 l -0.496515,-0.67689 -0.07742,4.49504 c -0.07355,4.27014 -0.0943,4.55792 -0.41466,5.75181 -0.456555,1.70143 -0.887195,2.71806 -1.818444,4.2929 -0.980465,1.65806 -1.49492,2.78712 -1.87924,4.12431 -0.298005,1.03686 -0.299705,1.09449 -0.369915,12.55102 -0.06677,10.89442 -0.0837,11.53411 -0.316855,11.97239 -0.34384,0.64634 -0.981955,1.29495 -1.605765,1.63217 -0.52829,0.28559 -0.5462,0.28611 -10.847916,0.3119 -8.263141,0.0207 -10.429615,-0.009 -10.875272,-0.14972 z m 21.005762,-2.44563 0.3867,-0.3867 5e-4,-10.75887 c 5e-4,-11.75404 0.0161,-12.04172 0.770095,-14.2646 0.438195,-1.2919 0.82714,-2.09659 1.823615,-3.77294 0.85456,-1.4376 1.43762,-2.98188 1.705215,-4.51636 0.302355,-1.73383 0.29608,-23.23551 -0.007,-23.96105 -0.440165,-1.05373 -1.4621,-1.74861 -2.57164,-1.74861 -1.550615,0 -2.647855,0.98959 -2.86658,2.58534 -0.113635,0.82906 -0.46965,1.25112 -1.055345,1.25112 -0.5448,0 -0.900945,-0.16679 -1.05149,-0.49242 -0.0598,-0.12935 -0.141215,-1.04343 -0.180925,-2.03129 -0.06565,-1.63306 -0.102225,-1.84042 -0.40293,-2.28418 -0.558325,-0.82394 -1.22517,-1.19764 -2.232786,-1.25126 -0.728517,-0.0387 -0.976334,0.007 -1.471381,0.27137 -0.78216,0.41779 -1.286547,1.15737 -1.466108,2.14976 -0.17735,0.98016 -0.519166,1.38906 -1.161186,1.38906 -0.746033,0 -1.076873,-0.41152 -1.076873,-1.33947 0,-1.25739 -0.23535,-2.06686 -0.774945,-2.66537 -1.216374,-1.34918 -2.975792,-1.3419 -4.139062,0.0171 -0.556599,0.65026 -0.774535,1.30388 -0.774535,2.32292 0,0.79686 -0.246849,1.44663 -0.601239,1.58263 -0.750377,0.28794 -1.647719,-0.21402 -1.647719,-0.92172 0,-1.00367 -0.684449,-2.10728 -1.595026,-2.57182 -0.601332,-0.30678 -1.654191,-0.34384 -2.284645,-0.0804 -0.57325,0.23952 -1.459425,1.26371 -1.653293,1.91078 -0.113378,0.37842 -0.155577,3.27196 -0.155577,10.66748 v 10.14822 l -0.402175,0.40217 c -0.336276,0.33628 -0.471759,0.38882 -0.826823,0.3207 -0.233557,-0.0448 -0.558594,-0.2337 -0.722305,-0.41973 -0.278278,-0.31623 -0.297656,-0.45834 -0.297656,-2.18296 v -1.8447 h -2.248958 -2.248959 v 3.44516 c 0,3.73295 0.110853,4.66885 0.734905,6.20466 0.752362,1.85157 1.627395,2.92723 4.099638,5.03959 2.9567,2.52629 4.144216,4.23935 4.924077,7.10324 l 0.351889,1.29224 0.03885,9.39271 c 0.02137,5.16599 0.06898,9.52515 0.105801,9.68702 0.158558,0.69698 0.0023,0.68686 10.690173,0.69258 l 9.898978,0.005 z m -37.82945,-40.41712 c 1.75419,-0.37183 3.43594,-1.53943 4.36917,-3.03343 0.85826,-1.37398 0.55758,-1.27421 3.839829,-1.27421 h 2.887357 v -2.3151 -2.3151 h -2.887357 c -3.277379,0 -3.033989,0.0792 -3.780699,-1.23007 -0.87081,-1.52685 -2.57675,-2.69757 -4.50121,-3.08901 -0.8763,-0.17824 -1.22469,-0.18854 -2.11666,-0.0626 -1.61533,0.22815 -3.81188,1.38096 -3.61396,1.89672 0.064,0.16674 0.44208,0.21404 2.10586,0.26343 1.42152,0.0422 2.16921,0.12126 2.50052,0.2644 0.72759,0.31434 1.45568,1.02691 1.79599,1.75768 0.27687,0.59456 0.30847,0.85217 0.30847,2.51451 0,1.67354 -0.0302,1.91585 -0.31323,2.51354 -0.17228,0.3638 -0.51401,0.85192 -0.75939,1.0847 -0.78604,0.74569 -1.28494,0.8784 -3.53159,0.93945 -1.67528,0.0455 -2.04078,0.0907 -2.10586,0.26032 -0.16393,0.42718 1.66866,1.51536 3.06285,1.81871 1.05709,0.23 1.67678,0.23136 2.73991,0.006 z m 54.23958,0 c 1.447085,-0.30673 3.29341,-1.38494 3.124645,-1.82473 -0.06504,-0.16951 -0.43162,-0.21511 -2.105865,-0.26196 -2.394391,-0.067 -2.870586,-0.21588 -3.722946,-1.16391 -0.755025,-0.83977 -0.8841,-1.34485 -0.88256,-3.45363 0.001,-1.57538 0.0353,-1.84363 0.30977,-2.43302 0.340305,-0.73077 1.0684,-1.44334 1.795985,-1.75768 0.331315,-0.14314 1.079001,-0.2222 2.500521,-0.2644 1.66378,-0.0494 2.041885,-0.0967 2.105865,-0.26343 0.196305,-0.51156 -2.00136,-1.67007 -3.60814,-1.90204 -0.886671,-0.12801 -1.223436,-0.11773 -2.113106,0.0645 -1.93807,0.39694 -3.63495,1.55402 -4.49589,3.0657 -0.62454,1.0966 -0.821635,1.25678 -1.54644,1.25678 h -0.638395 v 2.3151 2.3151 h 0.638395 c 0.717425,0 0.872555,0.12426 1.590875,1.27421 0.91643,1.4671 2.611395,2.65839 4.30738,3.02741 1.05709,0.23 1.67678,0.23136 2.739906,0.006 z m -43.143224,-12.85888 v -1.67207 l -0.652411,0.0773 c -1.51359,0.17926 -2.8817,1.25911 -3.51043,2.77078 l -0.206335,0.4961 h 2.184588 2.184588 z"
       id="path1-8"
       inkscape:export-filename="path1-8.svg"
       inkscape:export-xdpi="96"
       inkscape:export-ydpi="96" /></g></svg>
