<?xml version="1.0" encoding="UTF-8" standalone="no"?>
<!-- Created with Inkscape (http://www.inkscape.org/) -->

<svg
   width="112.71251mm"
   height="77.834915mm"
   viewBox="0 0 112.71251 77.834915"
   version="1.1"
   id="svg1"
   xml:space="preserve"
   xmlns:inkscape="http://www.inkscape.org/namespaces/inkscape"
   xmlns:sodipodi="http://sodipodi.sourceforge.net/DTD/sodipodi-0.dtd"
   xmlns="http://www.w3.org/2000/svg"
   xmlns:svg="http://www.w3.org/2000/svg"><sodipodi:namedview
     id="namedview1"
     pagecolor="#ffffff"
     bordercolor="#000000"
     borderopacity="0.25"
     inkscape:showpageshadow="2"
     inkscape:pageopacity="0.0"
     inkscape:pagecheckerboard="0"
     inkscape:deskcolor="#d1d1d1"
     inkscape:document-units="mm"
     showguides="true"><inkscape:page
       x="0"
       y="0"
       width="112.71251"
       height="77.834915"
       id="page2"
       margin="0"
       bleed="0" /></sodipodi:namedview><defs
     id="defs1" /><g
     inkscape:label="Слой 1"
     inkscape:groupmode="layer"
     id="layer1"
     transform="translate(-230.1983,954.99991)"><path
       style="fill:#000000;stroke-width:0.264583"
       d="m 285.09935,-877.2328 c -1.70622,-0.26788 -2.1899,-0.5541 -6.84291,-4.04947 -9.79767,-7.36004 -18.45238,-14.7798 -26.48545,-22.70619 -2.90547,-2.8669 -5.29585,-5.18862 -5.31194,-5.15938 -1.1488,2.08698 -2.59992,3.3336 -4.49188,3.85885 -0.57928,0.16082 -3.05345,0.29307 -5.49815,0.29388 -4.6178,0.002 -5.72875,-0.21697 -6.10636,-1.201 -0.0904,-0.23557 -0.16435,-11.02054 -0.16435,-23.96661 v -23.5383 l 0.64943,-0.64943 c 0.63159,-0.63159 0.75811,-0.64944 4.60392,-0.64944 5.74359,0 10.52662,0.89624 15.88067,2.97568 3.47242,1.34863 5.17895,3.10932 5.55368,5.7299 l 0.17392,1.2163 9.68039,0.0694 9.6804,0.0694 1.81717,-1.21855 c 3.30471,-2.21605 6.02874,-3.39586 8.85195,-3.8339 3.25303,-0.50472 4.56777,-0.14078 16.11164,4.46 5.73608,2.28609 10.47,4.03777 10.51982,3.89263 0.0498,-0.14515 0.45273,-0.89549 0.89533,-1.66743 1.02742,-1.79191 2.33469,-2.62409 6.07291,-3.86589 5.45285,-1.81137 10.12098,-2.5358 16.34049,-2.5358 4.20918,0 5.34682,0.23931 5.71642,1.20248 0.0904,0.23557 0.16436,11.02054 0.16436,23.9666 v 23.53831 l -0.64944,0.64943 c -0.64231,0.64231 -0.70249,0.64941 -5.4901,0.64795 -2.66383,-7.9e-4 -5.30574,-0.13059 -5.87484,-0.28861 -1.47175,-0.40863 -2.97344,-1.47627 -3.64224,-2.58951 -0.31617,-0.52627 -0.60202,-0.99477 -0.63521,-1.0411 -0.0332,-0.0463 -0.62368,0.34576 -1.3122,0.87132 -0.68852,0.52556 -1.59319,1.13208 -2.01037,1.34781 -0.71054,0.36743 -0.75889,0.49641 -0.76433,2.03909 -0.007,1.98234 -0.66656,3.59753 -2.05919,5.04271 -1.60729,1.66795 -2.76769,2.14494 -5.2382,2.15321 l -2.14383,0.007 -0.43942,1.23614 c -0.51455,1.44753 -2.23771,3.31901 -3.73959,4.06149 -0.83304,0.41182 -1.61302,0.52491 -3.66394,0.53123 l -2.60561,0.008 -0.34647,0.82399 c -0.50232,1.19468 -2.1766,2.94938 -3.4201,3.58436 -1.27089,0.64898 -4.23226,0.93174 -5.42039,0.51755 -0.78522,-0.27373 -0.83877,-0.2448 -1.33034,0.71875 -0.5718,1.12083 -2.08922,2.56111 -3.15244,2.99219 -1.09885,0.44552 -2.71989,0.63587 -3.87321,0.4548 z m 2.78408,-5.20663 c 0.29724,-0.37788 0.52321,-1.06933 0.52321,-1.60101 0,-0.86245 -0.41502,-1.35411 -5.29167,-6.26882 -4.60616,-4.64212 -5.29166,-5.43978 -5.29166,-6.15746 0,-1.42382 1.10345,-2.30601 2.76104,-2.20738 0.29085,0.0173 3.3272,2.83083 7.02854,6.51276 l 6.51647,6.48229 h 1.26614 c 1.08715,0 1.39332,-0.12718 2.16572,-0.89959 0.71757,-0.71757 0.89769,-1.10568 0.89021,-1.91823 -0.005,-0.56025 -0.15398,-1.27533 -0.33073,-1.58907 -0.17674,-0.31374 -2.7919,-3.13615 -5.81146,-6.27203 -5.06552,-5.26066 -5.4901,-5.77506 -5.4901,-6.65149 0,-1.24867 0.96151,-2.24687 2.17079,-2.25364 0.79427,-0.004 1.50811,0.64404 8.01567,7.28171 l 7.14375,7.28659 1.19062,-0.007 c 1.58099,-0.009 2.767,-0.75279 3.17606,-1.99226 0.6531,-1.9789 0.54883,-2.11999 -7.05798,-9.55117 -6.77955,-6.62301 -7.07183,-6.94975 -7.07183,-7.90563 0,-0.76014 0.17328,-1.14615 0.72913,-1.62427 1.53284,-1.31849 1.75649,-1.17939 8.39476,5.2208 3.33603,3.21638 6.13105,5.95401 6.21115,6.08363 0.0801,0.1296 1.09237,1.06989 2.24948,2.08952 1.87352,1.65092 2.22242,1.85388 3.18696,1.85388 0.87899,0 1.25264,-0.16953 1.98269,-0.89958 0.77312,-0.77312 0.89958,-1.07808 0.89958,-2.16933 0,-1.18504 -0.09,-1.35427 -1.34947,-2.5367 -0.74221,-0.69682 -7.24438,-6.65601 -14.44927,-13.24265 -14.71178,-13.44935 -13.3202,-12.50887 -16.29503,-11.01275 -1.78896,0.89972 -3.07103,1.82035 -5.02801,3.61052 -1.54583,1.41405 -4.4845,2.81321 -6.7824,3.22922 -4.59734,0.83231 -8.48201,-1.60365 -9.2786,-5.81831 -0.68479,-3.62315 1.30532,-8.51075 5.45763,-13.40366 0.63717,-0.75081 1.15849,-1.43542 1.15849,-1.52135 0,-0.0859 -3.51235,-0.15624 -7.80521,-0.15624 -4.29287,0 -7.80521,0.0607 -7.80521,0.13492 0,0.0742 -1.72641,5.83537 -3.83646,12.80256 -2.11005,6.9672 -3.83646,12.83529 -3.83646,13.04021 0,0.92732 10.86115,11.5904 18.34121,18.00674 7.14437,6.12839 18.05881,14.58423 19.1005,14.7979 0.91367,0.18742 1.71114,-0.0867 2.25175,-0.77396 z m 50.52946,-42.26566 v -20.50521 h -2.67802 c -4.58856,0 -10.7218,1.14094 -15.13393,2.8153 -1.48023,0.56173 -1.88027,0.8434 -2.22522,1.56678 l -0.42056,0.88193 6.32626,17.22981 c 4.36536,11.88922 6.52197,17.42924 6.95765,17.8732 0.6013,0.61273 0.7873,0.64339 3.90261,0.64339 h 3.27121 z m -15.48596,18.07558 c 0.66482,-0.5852 1.3301,-1.29071 1.47839,-1.56779 0.21467,-0.40113 -0.70951,-3.15893 -4.53507,-13.53288 -2.64258,-7.16599 -4.91887,-13.35039 -5.05842,-13.7431 -0.22991,-0.64698 -1.31358,-1.13651 -11.54352,-5.21456 -6.20939,-2.4753 -11.92218,-4.63598 -12.6951,-4.8015 -5.10198,-1.09259 -13.23826,4.15926 -18.62561,12.02255 -1.89226,2.76191 -2.64498,4.55669 -2.67591,6.38045 -0.0293,1.72506 0.59291,2.68077 1.99011,3.057 1.86821,0.50305 5.31676,-0.63867 6.82609,-2.25993 1.15607,-1.2418 4.07648,-3.26221 6.1141,-4.22987 2.34862,-1.11535 5.29391,-1.80232 6.21911,-1.45056 0.34922,0.13278 5.47918,4.67913 11.3999,10.10301 20.23716,18.53893 18.29562,16.85948 19.14728,16.56259 0.41243,-0.14378 1.29382,-0.74021 1.95865,-1.32541 z m -81.35525,-3.335 c 0.45896,-0.37165 1.68666,-4.09824 5.73108,-17.39636 2.83084,-9.30786 5.16473,-17.31371 5.18642,-17.79077 0.0276,-0.60773 -0.15454,-1.05566 -0.60854,-1.49635 -1.29791,-1.25986 -8.17868,-3.32985 -12.28962,-3.69717 -0.87313,-0.078 -2.33164,-0.21065 -3.24115,-0.29475 l -1.65364,-0.15292 v 20.65064 20.65064 h 3.14568 c 2.62686,0 3.24203,-0.078 3.72977,-0.47296 z"
       id="path1-6" /></g></svg>
