<?xml version="1.0" encoding="UTF-8" standalone="no"?>
<!-- Created with Inkscape (http://www.inkscape.org/) -->

<svg
   width="67.681313mm"
   height="67.663246mm"
   viewBox="0 0 67.681313 67.663246"
   version="1.1"
   id="svg1"
   xml:space="preserve"
   xmlns:inkscape="http://www.inkscape.org/namespaces/inkscape"
   xmlns:sodipodi="http://sodipodi.sourceforge.net/DTD/sodipodi-0.dtd"
   xmlns="http://www.w3.org/2000/svg"
   xmlns:svg="http://www.w3.org/2000/svg"><sodipodi:namedview
     id="namedview1"
     pagecolor="#ffffff"
     bordercolor="#000000"
     borderopacity="0.25"
     inkscape:showpageshadow="2"
     inkscape:pageopacity="0.0"
     inkscape:pagecheckerboard="0"
     inkscape:deskcolor="#d1d1d1"
     inkscape:document-units="mm"
     showguides="true"><inkscape:page
       x="0"
       y="0"
       width="67.681313"
       height="67.663246"
       id="page2"
       margin="0"
       bleed="0" /></sodipodi:namedview><defs
     id="defs1" /><g
     inkscape:label="Слой 1"
     inkscape:groupmode="layer"
     id="layer1"
     transform="translate(88.48562,954.21779)"><path
       style="fill:#ececec;stroke-width:0.132291"
       d="m -57.496433,-886.7292 c -7.490712,-0.89163 -14.698662,-4.52057 -20.498172,-10.32008 -7.90774,-7.90774 -11.86613,-18.84535 -10.05889,-27.79415 0.37665,-1.86502 0.79786,-3.10411 1.58969,-4.67642 2.49782,-4.95987 7.32866,-8.15692 13.4231,-8.88342 1.05955,-0.12635 5.25982,-0.0914 6.09484,0.0507 0.12856,0.022 0.55127,-0.41855 1.10807,-1.1546 4.843917,-6.40283 11.651247,-11.32733 18.593967,-13.45083 7.07482,-2.164 13.68064,-1.5253 18.645235,1.8027 4.16242,2.7902 6.696965,6.8595 7.54316,12.11048 1.034005,6.4165 -1.16717,14.29939 -5.825375,20.86195 -2.54154,3.58056 -6.05362,7.14846 -9.28178,9.42929 -0.616655,0.43569 -0.62503,0.45126 -0.529165,0.98381 0.05357,0.29761 0.09306,1.82104 0.08775,3.38539 -0.0088,2.57794 -0.04175,2.98053 -0.352425,4.29948 -0.464785,1.97318 -0.808765,2.94043 -1.593705,4.48141 -2.28871,4.49313 -6.28963,7.49665 -11.381805,8.54441 -2.62278,0.53965 -4.949855,0.64115 -7.564495,0.32993 z m 6.55729,-4.14654 c 1.96611,-0.40944 3.691485,-1.12492 5.02772,-2.08491 0.358585,-0.25762 0.65197,-0.48596 0.65197,-0.50742 0,-0.0214 -0.239995,-0.74514 -0.533325,-1.60817 -2.045645,-6.01864 -6.01988,-10.6318 -11.505215,-13.35486 -1.798565,-0.89285 -2.93987,-1.29383 -5.291672,-1.85916 -4.04338,-0.97194 -6.32413,-1.86129 -9.06197,-3.53357 -2.19942,-1.34341 -5.07127,-3.86845 -6.71766,-5.90643 -1.64592,-2.03741 -3.20421,-4.72088 -4.13453,-7.11993 l -0.37552,-0.96837 -0.19466,0.37153 c -0.36546,0.6975 -0.91757,2.35737 -1.15866,3.48343 -0.29763,1.39011 -0.3367,5.3532 -0.0678,6.87917 0.56655,3.2153 1.37642,5.65861 2.86096,8.63127 2.66371,5.3338 7.14747,10.23932 12.24057,13.39195 3.75755,2.32593 8.334437,3.97699 12.297322,4.43611 1.527695,0.17699 4.51126,0.0516 5.9625,-0.25064 z m 9.18015,-7.19176 c 0.97782,-2.12888 1.321245,-4.13996 1.230085,-7.20333 -0.07111,-2.38954 -0.32388,-3.90394 -1.04381,-6.25372 -2.020615,-6.59504 -6.861555,-13.05662 -13.14559,-17.54645 -3.09468,-2.21109 -7.099157,-4.06557 -10.517187,-4.87057 -2.25698,-0.5315 -3.40127,-0.64445 -5.79764,-0.5721 -3.75297,0.1133 -5.94139,0.8447 -8.87232,2.96524 -0.0285,0.0206 0.23131,0.8575 0.57725,1.85983 1.35692,3.93158 3.2622,6.97819 5.9946,9.5856 3.08726,2.94603 6.57959,4.77922 11.07467,5.81331 2.973487,0.68405 4.474597,1.20271 6.746877,2.33114 5.80052,2.88058 10.56504,8.03785 12.833165,13.89105 0.20441,0.52751 0.39589,0.95911 0.42551,0.95911 0.0296,0 0.252095,-0.4316 0.49439,-0.95911 z m 5.495375,-15.66125 c 1.23649,-1.01913 3.6443,-3.47871 4.766065,-4.86855 2.57529,-3.19069 4.727635,-7.19853 5.73459,-10.67826 1.75671,-6.07061 1.198895,-11.18544 -1.674105,-15.35044 l -0.51909,-0.7526 -1.73941,0.6035 c -1.92551,0.668 -3.76374,1.4888 -5.017535,2.2404 -3.430745,2.0567 -6.42668,5.28463 -8.211595,8.84768 -0.86742,1.73151 -1.229825,2.76492 -1.87605,5.34963 -0.54972,2.19873 -0.56625,2.32043 -0.352375,2.59443 0.12342,0.15812 0.665155,0.84641 1.203855,1.52952 2.45847,3.11754 4.553045,6.83729 5.6904,10.10557 0.22788,0.65484 0.44332,1.27174 0.47875,1.37089 0.07449,0.20844 0.0058,0.25332 1.5165,-0.99177 z m -12.17544,-16.41948 c 0.434845,-1.94819 1.68682,-4.94639 2.93531,-7.02934 2.02128,-3.37233 5.24834,-6.60413 8.644815,-8.65743 1.06335,-0.6428 3.427905,-1.8218 4.023375,-2.0061 0.17556,-0.054 0.532015,-0.1877 0.792115,-0.2964 l 0.472915,-0.1976 -0.725975,-0.3777 c -0.399285,-0.2078 -1.263745,-0.5539 -1.92103,-0.7692 -6.708015,-2.1972 -15.51559,0.2959 -22.882025,6.477 -1.9659,1.6496 -5.462637,5.40328 -5.291437,5.68033 0.0349,0.0564 0.22769,0.1437 0.42847,0.19395 1.469007,0.3675 5.485362,2.20115 7.244217,3.30725 1.954255,1.229 3.7079,2.51966 5.55625,4.08936 0.21828,0.18537 0.43205,0.33918 0.475045,0.3418 0.043,0.003 0.15457,-0.33755 0.247955,-0.75592 z"
       id="path1-93" /></g></svg>
